Coordinates
version=1
nRows=11
nColumns=42
inDegrees=yes

Units are S.I. units (second, meters, Newtons, ...)
If the header above contains a line with 'inDegrees', this indicates whether rotational values are in degrees (yes) or radians (no).

endheader
time	pelvis_tilt	pelvis_list	pelvis_rotation	pelvis_tx	pelvis_ty	pelvis_tz	hip_flexion_r	hip_adduction_r	hip_rotation_r	knee_angle_r	knee_adduction_r	knee_angle_r_beta	ankle_angle_r	subtalar_angle_r	mtp_angle_r	hip_flexion_l	hip_adduction_l	hip_rotation_l	knee_angle_l	knee_adduction_l	knee_angle_l_beta	ankle_angle_l	subtalar_angle_l	mtp_angle_l	lumbar_extension	lumbar_bending	lumbar_rotation	arm_flex_r	arm_add_r	arm_rot_r	elbow_flex_r	pro_sup_r	wrist_flex_r	wrist_dev_r	arm_flex_l	arm_add_l	arm_rot_l	elbow_flex_l	pro_sup_l	wrist_flex_l	wrist_dev_l
      2.16000000	      6.26813397	      0.41561179	      4.13861077	     -0.11222271	      0.89268569	      0.21601663	     20.63553787	     -2.20760056	    -19.69870504	     53.58755859	     -8.79673456	      0.93527934	      2.34363461	    -13.33583815	     -7.50041088	     -6.96505478	      8.27298066	      3.74988703	     12.23607089	     -5.84351099	      0.21355972	     18.84752305	      2.78558490	     -7.50041088	    -22.49774301	      1.06846428	      2.10627850	      2.64282219	    -21.04606015	     19.44556432	     40.34006597	     90.00000001	      0.00000000	      0.00000000	     16.34726296	    -20.50668940	     26.70299850	     44.03420217	     90.00000001	      0.00000000	      0.00000000
      2.17000000	      5.77442133	      0.68675373	      4.47140462	     -0.10124622	      0.89102687	      0.21517352	     22.14348163	     -2.70906470	    -19.52428385	     50.98794461	     -8.18794883	      0.88990751	      2.74955456	    -12.92040325	     -7.50040498	     -7.30455209	      8.59532555	      3.49997757	     12.12862479	     -6.01536022	      0.21168444	     19.16554227	      2.98245215	     -7.50040498	    -22.06155713	      0.84915134	      1.69321624	      1.75609520	    -20.81853813	     19.53894000	     40.19409949	     90.00000001	      0.00000000	      0.00000000	     17.54627171	    -20.86030687	     26.39206285	     44.79788229	     90.00000001	      0.00000000	      0.00000000
      2.18000000	      6.21367050	      0.34237499	      5.04047407	     -0.08951697	      0.89107321	      0.21470143	     21.89372750	     -2.20683523	    -19.99970083	     47.07342580	     -7.81199028	      0.82158627	      3.10640458	    -12.39346725	     -7.50038478	     -9.12131641	      7.85277450	      3.83444454	     11.22187750	     -5.90299536	      0.19585871	     20.14999015	      4.49458217	     -7.50038478	    -22.61217140	      1.38565163	      1.22356795	      1.12270210	    -20.44833900	     19.19505109	     39.90086462	     90.00000001	      0.00000000	      0.00000000	     18.71010299	    -21.32222014	     26.14096901	     46.00029826	     90.00000001	      0.00000000	      0.00000000
      2.19000000	      6.17941667	      0.32793095	      5.46377709	     -0.07816366	      0.88988928	      0.21414616	     22.38207863	     -2.23308240	    -20.62291576	     43.53018046	     -7.63305075	      0.75974497	      3.78041352	    -11.01817882	     -7.50034836	    -10.01917145	      7.62694324	      3.59367691	     11.00982678	     -5.90025950	      0.19215773	     21.03839798	      5.71002064	     -7.50034836	    -22.67390051	      1.50876581	      0.84211203	      0.37505352	    -20.11709270	     18.95037934	     39.67215726	     90.00000001	      0.00000000	      0.00000000	     19.93595111	    -21.67930505	     25.95704886	     46.85221845	     90.00000001	      0.00000000	      0.00000000
      2.20000000	      6.06546610	      0.34330760	      5.82458108	     -0.06705595	      0.88847323	      0.21378379	     22.87194755	     -2.23107587	    -21.09926149	     39.85432877	     -7.36431220	      0.69558926	      4.15265276	    -10.14465418	     -7.50033597	    -10.78838771	      7.44676957	      3.70758374	     10.90793069	     -5.81687938	      0.19037931	     21.75158553	      6.05415333	     -7.50033597	    -22.69716946	      1.56938160	      0.48673301	     -0.23070203	    -19.74942164	     18.82070001	     39.28891112	     90.00000001	      0.00000000	      0.00000000	     21.14588323	    -21.98903338	     25.65195580	     47.64151260	     90.00000001	      0.00000000	      0.00000000
      2.21000000	      5.75670330	      0.42760016	      6.10359827	     -0.05615047	      0.88651995	      0.21339596	     23.57162602	     -2.32389512	    -21.56573209	     36.23368748	     -7.11628762	      0.63239715	      4.55481915	     -8.95241899	     -7.50032730	    -11.24967824	      7.50145253	      3.86519154	     10.99053168	     -5.94632810	      0.19182096	     22.32804984	      6.30686913	     -7.50032730	    -22.54120843	      1.53827881	      0.23609016	     -0.88179055	    -19.45304292	     18.69669830	     39.00211678	     90.00000001	      0.00000000	      0.00000000	     22.35216978	    -22.20115729	     25.39274690	     48.34291207	     90.00000001	      0.00000000	      0.00000000
      2.22000000	      5.95252160	      0.41384062	      6.43550532	     -0.04433814	      0.88518633	      0.21333906	     23.50114965	     -2.27101504	    -23.61595662	     32.34778075	     -7.58679208	      0.56457528	      5.84169072	     -4.73084372	     -7.50030046	    -12.45643406	      7.17722787	      3.84558274	     10.75490207	     -5.81823751	      0.18770845	     23.06455184	      7.14622052	     -7.50030046	    -22.83924079	      1.63311286	      0.03566878	     -1.61687453	    -19.01803742	     18.08610633	     38.79823342	     90.00000001	      0.00000000	      0.00000000	     23.56823796	    -22.44848108	     25.26420513	     49.01155742	     90.00000001	      0.00000000	      0.00000000
      2.23000000	      5.81587008	      0.44896827	      6.64695019	     -0.03295759	      0.88313895	      0.21334788	     23.84882980	     -2.24615643	    -24.95499392	     28.74526900	     -7.63700042	      0.50169959	      6.59534608	     -1.65034414	     -7.50027860	    -13.05995205	      7.06726660	      3.80007441	     10.96644968	     -5.80242447	      0.19140065	     23.80435783	      7.35219083	     -7.50027860	    -22.82368250	      1.63505395	     -0.11427680	     -2.21230160	    -18.63697839	     17.77229354	     38.44341218	     90.00000001	      0.00000000	      0.00000000	     24.66988071	    -22.59709393	     24.99690565	     49.59838673	     90.00000001	      0.00000000	      0.00000000
      2.24000000	      5.59335784	      0.55523915	      6.79448823	     -0.02152745	      0.88077817	      0.21342858	     24.33126059	     -2.34796377	    -26.40690405	     25.53471681	     -7.62911830	      0.44566488	      7.50443207	      2.11171237	     -7.50025417	    -13.53441754	      7.09890731	      3.74966038	     11.27610457	     -5.85397147	      0.19680515	     24.54265289	      7.55266933	     -7.50025417	    -22.71377480	      1.53358865	     -0.20150321	     -2.81289429	    -18.26412179	     17.40431724	     38.12147359	     90.00000001	      0.00000000	      0.00000000	     25.71350988	    -22.70963124	     24.74368895	     50.14160500	     90.00000001	      0.00000000	      0.00000000
      2.25000000	      5.39401112	      0.64196687	      6.90397519	     -0.00998369	      0.87836533	      0.21365981	     24.75409626	     -2.37260542	    -27.67514551	     22.62572254	     -7.51518735	      0.39489335	      8.06716894	      5.49177234	     -7.50023588	    -14.01722593	      7.08865665	      3.68243988	     11.64047623	     -5.87367563	      0.20316464	     25.19716846	      7.66200941	     -7.50023588	    -22.62437869	      1.44893024	     -0.24812437	     -3.37232061	    -17.89857770	     17.04270120	     37.82325172	     90.00000001	      0.00000000	      0.00000000	     26.65114264	    -22.76167917	     24.36788301	     50.66658605	     90.00000001	      0.00000000	      0.00000000
      2.26000000	      5.12685166	      0.75813560	      6.95053701	      0.00168143	      0.87566821	      0.21399627	     25.35205610	     -2.47498547	    -29.01484842	     20.35247208	     -7.41456648	      0.35521765	      8.73995743	      9.25661190	     -7.50021515	    -14.37518658	      7.15657434	      3.52343128	     12.12991927	     -5.94906988	      0.21170703	     25.92527074	      7.75329233	     -7.50021515	    -22.43925611	      1.31025905	     -0.23649223	     -3.89434516	    -17.54933818	     16.71940902	     37.47694379	     90.00000001	      0.00000000	      0.00000000	     27.48638912	    -22.78647878	     23.98669183	     51.17356474	     90.00000001	      0.00000000	      0.00000000
